<svg id="Capa_1" enable-background="new 0 0 512 512" height="512" viewBox="0 0 512 512" width="512" xmlns="http://www.w3.org/2000/svg"><g><path id="XMLID_165_" d="m428.398 460.828h-106.07c1.04 4.716 1.604 9.608 1.604 14.632 0 5.84-.742 11.511-2.134 16.923h122.377c8.714 0 15.778-7.064 15.778-15.778v-90.71h-31.555z"/><path id="XMLID_164_" d="m189.671 460.828h-106.069v-74.932h-31.555v90.71c0 8.714 7.064 15.778 15.778 15.778h122.376c-1.393-5.412-2.134-11.082-2.134-16.923 0-5.025.564-9.917 1.604-14.633z"/><path id="XMLID_163_" d="m271.777 385.896h-31.555v23.501c5.067-1.21 10.345-1.869 15.777-1.869s10.711.659 15.778 1.869z"/><ellipse id="XMLID_162_" cx="256" cy="475.46" rx="36.378" ry="36.378" transform="matrix(.707 -.707 .707 .707 -261.221 320.278)"/><path id="XMLID_161_" d="m142.006 337.464v-320.426c0-9.321-7.556-16.877-16.877-16.877h-108.252c-9.321 0-16.877 7.556-16.877 16.877v320.426c0 9.321 7.556 16.877 16.877 16.877h108.252c9.321 0 16.877-7.556 16.877-16.877zm-71.003-36.305c-8.279 0-14.991-6.711-14.991-14.991 0-8.279 6.711-14.991 14.991-14.991 8.279 0 14.991 6.712 14.991 14.991-.001 8.28-6.712 14.991-14.991 14.991zm30.504-179.915h-61.008c-8.714 0-15.778-7.064-15.778-15.778s7.064-15.778 15.778-15.778h61.009c8.714 0 15.778 7.064 15.778 15.778-.001 8.714-7.065 15.778-15.779 15.778zm0-62.94h-61.008c-8.714 0-15.778-7.064-15.778-15.778s7.064-15.778 15.778-15.778h61.009c8.714 0 15.778 7.064 15.778 15.778-.001 8.714-7.065 15.778-15.779 15.778z"/><path id="XMLID_160_" d="m327.003 337.464v-320.426c0-9.321-7.556-16.877-16.877-16.877h-108.252c-9.321 0-16.877 7.556-16.877 16.877v320.426c0 9.321 7.556 16.877 16.877 16.877h108.252c9.321 0 16.877-7.556 16.877-16.877zm-71.003-36.305c-8.279 0-14.991-6.711-14.991-14.991 0-8.279 6.711-14.991 14.991-14.991 8.279 0 14.991 6.712 14.991 14.991 0 8.28-6.712 14.991-14.991 14.991zm30.504-179.915h-61.008c-8.714 0-15.778-7.064-15.778-15.778s7.064-15.778 15.778-15.778h61.008c8.714 0 15.778 7.064 15.778 15.778s-7.064 15.778-15.778 15.778zm0-62.94h-61.008c-8.714 0-15.778-7.064-15.778-15.778s7.064-15.778 15.778-15.778h61.008c8.714 0 15.778 7.064 15.778 15.778s-7.064 15.778-15.778 15.778z"/><path id="XMLID_156_" d="m495.123.161h-108.252c-9.321 0-16.877 7.556-16.877 16.877v320.426c0 9.321 7.556 16.877 16.877 16.877h108.252c9.321 0 16.877-7.556 16.877-16.877v-320.426c0-9.321-7.556-16.877-16.877-16.877zm-54.126 300.998c-8.279 0-14.991-6.711-14.991-14.991 0-8.279 6.712-14.991 14.991-14.991s14.991 6.712 14.991 14.991c0 8.28-6.712 14.991-14.991 14.991zm30.504-179.915h-61.008c-8.714 0-15.778-7.064-15.778-15.778s7.064-15.778 15.778-15.778h61.008c8.714 0 15.778 7.064 15.778 15.778s-7.064 15.778-15.778 15.778zm0-62.94h-61.008c-8.714 0-15.778-7.064-15.778-15.778s7.064-15.778 15.778-15.778h61.008c8.714 0 15.778 7.064 15.778 15.778s-7.064 15.778-15.778 15.778z"/></g></svg>